# xmcd
#
# Track frame offsets: 
#        150
#        28537
#        53239
#        96951
#        120630
#        184074
#        225205
#
# Disc length: 3801 seconds
#
# Revision: 0
# Processed by: cddbd v1.5.2PL0 Copyright (c) Steve Scherf et al.
# Submitted via: ExactAudioCopyFreeDBPlugin 1.0
#
DISCID=4e0ed707
DTITLE=Joe Bonamassa - Tour de Force - Live in London, Hammersmith Apo
DTITLE=llo
DYEAR=2014
DGENRE=Blues
TTITLE0=Who's Been Talking
TTITLE1=Jockey Full Of Bourbon
TTITLE2=Tea For One
TTITLE3=Lonesome Road Blues
TTITLE4=The Ballad Of John Henry
TTITLE5=Sloe Gin
TTITLE6=Just Got Paid
EXTD=
EXTT0=
EXTT1=
EXTT2=
EXTT3=
EXTT4=
EXTT5=
EXTT6=
PLAYORDER=
